# xmcd
#
# Track frame offsets:
#	182
#	22750
#	52555
#	73865
#	95945
#	125367
#	153695
#	181795
#	206450
#	232012
#	260722
#	281940
#	297382
#
# Disc length: 4257
#
# Revision: 2
# Processed by: cddbd v1.5.1PL0 Copyright (c) Steve Scherf et al.
# Submitted via: DiscPlay 4.0.3
# Normalized: r1:TDELIM( - )
#
DISCID=c2109f0d
DTITLE=Various Artist - 1995 We Are The Blues
DYEAR=1900
DGENRE=
TTITLE0=Lucky Peterson - Who's Been Talkin'?
TTITLE1=Joe Louis Walker - Blues Survivor
TTITLE2=James Cotton - Certified
TTITLE3=Johnny Copeland - Every Dog's Got His Day
TTITLE4=Charles Brown - These Blues
TTITLE5=Bid Daddy Kinsey - I Am The Blues
TTITLE6=Larry Garner - Live A Little
TTITLE7=Clarence Gatemouth Brown - There You Are
TTITLE8=Joe Louis Walker - Hold On
TTITLE9=Buddy Scott - Bad Bad Feeling
TTITLE10=Johnny Copeland - Greater Man
TTITLE11=Big Daddy Kinsey - Nothing's Too Good For My Baby
TTITLE12=Lucky Peterson - Up From The Skies
EXTD=
EXTT0=
EXTT1=
EXTT2=
EXTT3=
EXTT4=
EXTT5=
EXTT6=
EXTT7=
EXTT8=
EXTT9=
EXTT10=
EXTT11=
EXTT12=
PLAYORDER=
